<?xml version="1.0" encoding="utf-8"?>
<!-- Generator: Adobe Illustrator 23.0.1, SVG Export Plug-In . SVG Version: 6.00 Build 0)  -->
<svg version="1.1" xmlns="http://www.w3.org/2000/svg" xmlns:xlink="http://www.w3.org/1999/xlink" x="0px" y="0px"
	 viewBox="0 0 1024 1024" style="enable-background:new 0 0 1024 1024;" xml:space="preserve">
<style type="text/css">
	.st0{fill:#FFFFFF;}
	.st1{fill:#00AA58;}
	.st2{fill:#242424;}
</style>
<g id="Background">
	<rect class="st0" width="1024" height="1024"/>
</g>
<g id="Icon">
	<path class="st1" d="M171,282.8c-18.5,0-33.5,15-33.5,33.5c0,18.5,15,33.5,33.5,33.5s33.5-15,33.5-33.5
		C204.5,297.8,189.5,282.8,171,282.8z"/>
	<path class="st1" d="M315.7,205.1c18.5,0,33.5-15,33.5-33.5c0-18.5-15-33.5-33.5-33.5c-18.5,0-33.5,15-33.5,33.5
		C282.3,190.1,297.3,205.1,315.7,205.1z"/>
	<ellipse class="st1" cx="903" cy="512" rx="33.5" ry="33.5"/>
	<path class="st1" d="M852,674.3c-18.5,0-33.5,15-33.5,33.5c0,18.5,15,33.5,33.5,33.5s33.5-15,33.5-33.5
		C885.4,689.3,870.4,674.3,852,674.3z"/>
	<path class="st1" d="M707.3,819c-18.5,0-33.5,15-33.5,33.5c0,18.5,15,33.5,33.5,33.5s33.5-15,33.5-33.5
		C740.7,834,725.7,819,707.3,819z"/>
	<path class="st1" d="M511.5,870.1c-18.5,0-33.5,15-33.5,33.5c0,18.5,15,33.5,33.5,33.5s33.5-15,33.5-33.5
		C545,885.1,530,870.1,511.5,870.1z"/>
	<path class="st1" d="M315.7,819c-18.5,0-33.5,15-33.5,33.5c0,18.5,15,33.5,33.5,33.5c18.5,0,33.5-15,33.5-33.5
		C349.2,834,334.2,819,315.7,819z"/>
	<path class="st1" d="M171,674.3c-18.5,0-33.5,15-33.5,33.5c0,18.5,15,33.5,33.5,33.5s33.5-15,33.5-33.5
		C204.5,689.3,189.5,674.3,171,674.3z"/>
	<ellipse class="st1" cx="120" cy="512" rx="33.5" ry="33.5"/>
	<path class="st2" d="M645.2,463.4L521,463c-9.3,0-16.6-8-15.8-17.3l15-167.9c0-10-6.7-18.4-16.4-20.6c-9.7-2.2-19.4,2.6-23.6,11.6
		l-129.9,279c-3,6.5-2.5,14.1,1.3,20.1c3.9,6.1,10.5,9.7,17.7,9.7l124.2,0.4c9.3,0,16.6,8,15.8,17.3l-15,167.9
		c0,9.9,6.7,18.4,16.4,20.6c1.6,0.3,3.1,0.5,4.7,0.5c8.2,0,15.4-4.7,18.9-12.2l129.9-279c3-6.5,2.6-14.1-1.3-20.1
		C659,467,652.4,463.4,645.2,463.4z"/>
	<path class="st1" d="M849.4,347.7c5.9,0,11.8-1.6,16.9-4.6c7.7-4.5,13.2-11.8,15.5-20.4c2.3-8.6,1-17.7-3.5-25.4
		C802.2,167.6,661.7,87,511.5,87c-18.5,0-33.5,15-33.5,33.5c0,18.5,15,33.5,33.5,33.5c126.5,0,244.9,67.9,309,177.2
		C826.5,341.4,837.6,347.7,849.4,347.7z"/>
</g>
</svg>
