<svg enable-background="new 0 0 643.3 107" viewBox="0 0 643.3 107" xmlns="http://www.w3.org/2000/svg"><g fill="#242424"><path d="m167 25c4.4 3.9 6.6 9.3 6.6 16.3 0 4-.8 7.8-2.4 11.2-1.6 3.5-4.2 6.3-7.8 8.5s-8.1 3.3-13.6 3.3h-10.5v26.2h-9.6v-71.3h19.1c7.8 0 13.9 1.9 18.2 5.8zm-8.8 27.8c2.1-1.4 3.7-3.2 4.6-5.3s1.4-4.1 1.4-6.1c0-3.4-1.1-6.5-3.4-9.1-2.2-2.7-5.7-4-10.4-4h-11v26.7h10.5c3.3 0 6.1-.7 8.3-2.2z"/><path d="m215.2 80 4.2 6.8c-2.2 1.4-4.5 2.6-7 3.4s-5 1.2-7.3 1.2c-4.5 0-8.5-.9-11.9-2.8s-6-4.5-7.8-7.7c-1.8-3.3-2.8-7-2.8-11.1 0-4 1-7.7 3-11s4.7-5.9 8.2-7.9c3.5-1.9 7.3-2.9 11.4-2.9 5.3 0 9.8 1.6 13.4 4.7s6 7.5 7.3 13.1l-32.3 11.3c1.2 2 2.8 3.6 4.8 4.8s4.3 1.7 6.9 1.7c3.4 0 6.7-1.2 9.9-3.6zm-19.9-20.8c-2.4 2.6-3.6 6-3.6 10.1 0 1 0 1.7.1 2.3l23.8-8.8c-1-2.2-2.4-4-4.2-5.4s-4.1-2.1-6.8-2.1c-3.8 0-6.9 1.3-9.3 3.9z"/><path d="m250.7 53.4c1.9-1.7 4-3 6.2-3.9s4.1-1.4 5.7-1.5l-.4 9.2c-3-.1-5.6.5-8 1.8s-4.3 3.1-5.6 5.5c-1.3 2.3-2 4.8-2 7.4v18.6h-9.2v-40.8h8.2l.7 9.7c1-2.3 2.5-4.3 4.4-6z"/><path d="m277.8 57.8h-7v-8.3h7v-17.1c0-5.9 1.3-10.5 4-13.6 2.7-3.2 6.6-4.7 11.8-4.7 1.4 0 3 .2 4.6.6s3.1 1 4.3 1.8l-3.9 6.7c-1-1.1-2.4-1.6-4.1-1.6-2.5 0-4.4.9-5.7 2.6s-1.9 4.5-1.9 8.3v17.1h13v8.3h-13v32.6h-9.2v-32.7z"/><path d="m353.4 90.5-16.8-26.3c-.5.1-1.3.1-2.4.1h-10.5v26.2h-9.6v-71.3h19c4.9 0 9.2.9 13 2.6s6.8 4.2 9 7.5 3.3 7.3 3.3 12c0 4.4-1 8.4-2.9 12.1s-4.9 6.5-8.9 8.4l17.9 28.7zm-8.2-39.6c2.3-2.7 3.4-5.8 3.4-9.3 0-2.1-.5-4.2-1.4-6.2-1-2-2.5-3.7-4.5-5.1-2.1-1.3-4.7-2-7.8-2h-11v26.7h10.4c4.9 0 8.6-1.4 10.9-4.1z"/><path d="m404.8 80 4.2 6.8c-2.2 1.4-4.5 2.6-7 3.4s-5 1.2-7.3 1.2c-4.5 0-8.5-.9-11.9-2.8s-6-4.5-7.8-7.7c-1.8-3.3-2.8-7-2.8-11.1 0-4 1-7.7 3-11s4.7-5.9 8.2-7.9c3.5-1.9 7.3-2.9 11.4-2.9 5.3 0 9.8 1.6 13.4 4.7s6 7.5 7.3 13.1l-32.3 11.3c1.2 2 2.8 3.6 4.8 4.8s4.3 1.7 6.9 1.7c3.3 0 6.6-1.2 9.9-3.6zm-19.9-20.8c-2.4 2.6-3.6 6-3.6 10.1 0 1 0 1.7.1 2.3l23.8-8.8c-1-2.2-2.4-4-4.2-5.4s-4.1-2.1-6.8-2.1c-3.8 0-6.9 1.3-9.3 3.9z"/><path d="m464.3 49.7-21.8 42h-.5l-22.7-42h10.9l12.3 26 11.4-26z"/><path d="m475.2 31.3c1.1-1 2.4-1.5 3.8-1.5s2.7.5 3.8 1.5 1.6 2.2 1.6 3.6-.5 2.7-1.6 3.6-2.4 1.5-3.8 1.5-2.7-.5-3.8-1.5-1.7-2.2-1.7-3.6.5-2.6 1.7-3.6zm8.1 18.4v40.8h-9.2v-40.8z"/><path d="m528.4 80 4.2 6.8c-2.2 1.4-4.5 2.6-7 3.4s-5 1.2-7.3 1.2c-4.5 0-8.5-.9-11.9-2.8s-6-4.5-7.8-7.7c-1.8-3.3-2.8-7-2.8-11.1 0-4 1-7.7 3-11s4.7-5.9 8.2-7.9c3.5-1.9 7.3-2.9 11.4-2.9 5.3 0 9.8 1.6 13.4 4.7s6 7.5 7.3 13.1l-32.3 11.3c1.2 2 2.8 3.6 4.8 4.8s4.3 1.7 6.9 1.7c3.3 0 6.7-1.2 9.9-3.6zm-19.9-20.8c-2.4 2.6-3.6 6-3.6 10.1 0 1 0 1.7.1 2.3l23.8-8.8c-1-2.2-2.4-4-4.2-5.4s-4.1-2.1-6.8-2.1c-3.8 0-6.9 1.3-9.3 3.9z"/><path d="m606.1 49.7-18.8 43.3-13.1-28-11.9 28-18.9-43.3h9.1l10.9 24.7 7.6-17.7-3.3-7h8l11 25.3 10.3-25.3z"/><path d="m618.8 89.8c-2.7-1-4.9-2.6-6.7-4.6l3.9-5.3c1.6 1.6 3.4 2.8 5.2 3.6 1.8.9 3.6 1.3 5.4 1.3 2.2 0 3.9-.4 5.3-1.3s2.1-2.2 2.1-3.9c0-1.4-.4-2.5-1.3-3.4s-1.8-1.5-2.9-1.9-2.9-1-5.5-1.8c-7-2.2-10.4-6.2-10.4-11.9 0-3.4 1.3-6.3 3.8-8.8 2.5-2.4 6.1-3.6 10.6-3.6 2.9 0 5.5.4 7.7 1.1s4.3 1.9 6.2 3.5l-3.6 5.6c-1.1-1.1-2.4-2-4-2.7s-3.1-1-4.6-1.1c-1.8 0-3.4.4-4.7 1.3s-2 2.1-2 3.6c0 1.2.4 2.3 1.3 3.1s1.7 1.4 2.7 1.8c.9.4 2.7 1 5.4 1.8 3.4 1.1 6 2.6 7.8 4.3s2.8 4.2 2.8 7.2c0 3.9-1.4 7.2-4.1 9.8-2.8 2.6-6.7 3.8-11.7 3.8-3.1.1-5.9-.5-8.7-1.5z"/><path d="m70.3 47.4h-15.6c-1.2 0-2.1-1-2-2.2l1.9-21.2c0-1.3-.8-2.3-2.1-2.6-1.2-.3-2.4.3-3 1.5l-16.3 35.1c-.4.8-.3 1.8.2 2.5.5.8 1.3 1.2 2.2 1.2h15.6c1.2 0 2.1 1 2 2.2l-1.9 21.1c0 1.3.8 2.3 2.1 2.6.2 0 .4.1.6.1 1 0 1.9-.6 2.4-1.5l16.4-35.1c.4-.8.3-1.8-.2-2.5-.5-.8-1.4-1.2-2.3-1.2z"/></g><path d="m28.9 14.9c2.3 0 4.2-1.9 4.2-4.2s-1.9-4.2-4.2-4.2-4.2 1.9-4.2 4.2c-.1 2.3 1.8 4.2 4.2 4.2z" fill="#00aa58"/><path d="m10.6 24.6c-2.3 0-4.2 1.9-4.2 4.2s1.9 4.2 4.2 4.2 4.2-1.9 4.2-4.2c.1-2.3-1.8-4.2-4.2-4.2z" fill="#00aa58"/><circle cx="4.2" cy="53.5" fill="#00aa58" r="4.2"/><path d="m10.6 73.9c-2.3 0-4.2 1.9-4.2 4.2s1.9 4.2 4.2 4.2 4.2-1.9 4.2-4.2c.1-2.3-1.8-4.2-4.2-4.2z" fill="#00aa58"/><path d="m28.9 92.1c-2.3 0-4.2 1.9-4.2 4.2s1.9 4.2 4.2 4.2 4.2-1.9 4.2-4.2-1.9-4.2-4.2-4.2z" fill="#00aa58"/><path d="m53.5 98.6c-2.3 0-4.2 1.9-4.2 4.2s1.9 4.2 4.2 4.2 4.2-1.9 4.2-4.2-1.9-4.2-4.2-4.2z" fill="#00aa58"/><path d="m78.1 92.1c-2.3 0-4.2 1.9-4.2 4.2s1.9 4.2 4.2 4.2 4.2-1.9 4.2-4.2c.1-2.3-1.8-4.2-4.2-4.2z" fill="#00aa58"/><path d="m96.4 73.9c-2.3 0-4.2 1.9-4.2 4.2s1.9 4.2 4.2 4.2 4.2-1.9 4.2-4.2-1.9-4.2-4.2-4.2z" fill="#00aa58"/><circle cx="102.8" cy="53.5" fill="#00aa58" r="4.2"/><path d="m96 32.8c.7 0 1.5-.2 2.1-.6 1-.6 1.7-1.5 1.9-2.6.3-1.1.1-2.2-.4-3.2-9.5-16.3-27.2-26.4-46.1-26.4-2.3 0-4.2 1.9-4.2 4.2s1.9 4.2 4.2 4.2c15.9 0 30.8 8.5 38.9 22.3.8 1.3 2.2 2.1 3.6 2.1z" fill="#00aa58"/></svg>