<?xml version="1.0" encoding="utf-8"?>
<!-- Generator: Adobe Illustrator 23.0.1, SVG Export Plug-In . SVG Version: 6.00 Build 0)  -->
<svg version="1.1" id="PerfReviews" xmlns="http://www.w3.org/2000/svg" xmlns:xlink="http://www.w3.org/1999/xlink" x="0px"
	 y="0px" viewBox="0 0 643.3 107" style="enable-background:new 0 0 643.3 107;" xml:space="preserve">
<style type="text/css">
	.st0{fill:#242424;}
	.st1{fill:#00AA58;}
</style>
<path id="P" class="st0" d="M167,25c4.4,3.9,6.6,9.3,6.6,16.3c0,4-0.8,7.8-2.4,11.2c-1.6,3.5-4.2,6.3-7.8,8.5
	c-3.6,2.2-8.1,3.3-13.6,3.3h-10.5v26.2h-9.6V19.2h19.1C156.6,19.2,162.7,21.1,167,25z M158.2,52.8c2.1-1.4,3.7-3.2,4.6-5.3
	c0.9-2.1,1.4-4.1,1.4-6.1c0-3.4-1.1-6.5-3.4-9.1c-2.2-2.7-5.7-4-10.4-4h-11V55h10.5C153.2,55,156,54.3,158.2,52.8z"/>
<path id="e1" class="st0" d="M215.2,80l4.2,6.8c-2.2,1.4-4.5,2.6-7,3.4c-2.5,0.8-5,1.2-7.3,1.2c-4.5,0-8.5-0.9-11.9-2.8
	c-3.4-1.9-6-4.5-7.8-7.7c-1.8-3.3-2.8-7-2.8-11.1c0-4,1-7.7,3-11c2-3.3,4.7-5.9,8.2-7.9c3.5-1.9,7.3-2.9,11.4-2.9
	c5.3,0,9.8,1.6,13.4,4.7c3.6,3.1,6,7.5,7.3,13.1l-32.3,11.3c1.2,2,2.8,3.6,4.8,4.8c2,1.2,4.3,1.7,6.9,1.7
	C208.7,83.6,212,82.4,215.2,80z M195.3,59.2c-2.4,2.6-3.6,6-3.6,10.1c0,1,0,1.7,0.1,2.3l23.8-8.8c-1-2.2-2.4-4-4.2-5.4
	c-1.8-1.4-4.1-2.1-6.8-2.1C200.8,55.3,197.7,56.6,195.3,59.2z"/>
<path id="r" class="st0" d="M250.7,53.4c1.9-1.7,4-3,6.2-3.9c2.2-0.9,4.1-1.4,5.7-1.5l-0.4,9.2c-3-0.1-5.6,0.5-8,1.8
	c-2.4,1.3-4.3,3.1-5.6,5.5c-1.3,2.3-2,4.8-2,7.4v18.6h-9.2V49.7h8.2l0.7,9.7C247.3,57.1,248.8,55.1,250.7,53.4z"/>
<path id="f" class="st0" d="M277.8,57.8h-7v-8.3h7V32.4c0-5.9,1.3-10.5,4-13.6c2.7-3.2,6.6-4.7,11.8-4.7c1.4,0,3,0.2,4.6,0.6
	c1.6,0.4,3.1,1,4.3,1.8l-3.9,6.7c-1-1.1-2.4-1.6-4.1-1.6c-2.5,0-4.4,0.9-5.7,2.6c-1.3,1.7-1.9,4.5-1.9,8.3v17.1h13v8.3h-13v32.6
	h-9.2V57.8z"/>
<path id="R" class="st0" d="M353.4,90.5l-16.8-26.3c-0.5,0.1-1.3,0.1-2.4,0.1h-10.5v26.2h-9.6V19.2h19c4.9,0,9.2,0.9,13,2.6
	c3.8,1.7,6.8,4.2,9,7.5c2.2,3.3,3.3,7.3,3.3,12c0,4.4-1,8.4-2.9,12.1c-1.9,3.7-4.9,6.5-8.9,8.4l17.9,28.7H353.4z M345.2,50.9
	c2.3-2.7,3.4-5.8,3.4-9.3c0-2.1-0.5-4.2-1.4-6.2c-1-2-2.5-3.7-4.5-5.1c-2.1-1.3-4.7-2-7.8-2h-11V55h10.4
	C339.2,55,342.9,53.6,345.2,50.9z"/>
<path id="e2" class="st0" d="M404.8,80l4.2,6.8c-2.2,1.4-4.5,2.6-7,3.4c-2.5,0.8-5,1.2-7.3,1.2c-4.5,0-8.5-0.9-11.9-2.8
	c-3.4-1.9-6-4.5-7.8-7.7c-1.8-3.3-2.8-7-2.8-11.1c0-4,1-7.7,3-11c2-3.3,4.7-5.9,8.2-7.9c3.5-1.9,7.3-2.9,11.4-2.9
	c5.3,0,9.8,1.6,13.4,4.7c3.6,3.1,6,7.5,7.3,13.1l-32.3,11.3c1.2,2,2.8,3.6,4.8,4.8c2,1.2,4.3,1.7,6.9,1.7
	C398.2,83.6,401.5,82.4,404.8,80z M384.9,59.2c-2.4,2.6-3.6,6-3.6,10.1c0,1,0,1.7,0.1,2.3l23.8-8.8c-1-2.2-2.4-4-4.2-5.4
	c-1.8-1.4-4.1-2.1-6.8-2.1C390.4,55.3,387.3,56.6,384.9,59.2z"/>
<path id="v" class="st0" d="M464.3,49.7l-21.8,42H442l-22.7-42h10.9l12.3,26l11.4-26H464.3z"/>
<path id="i" class="st0" d="M475.2,31.3c1.1-1,2.4-1.5,3.8-1.5c1.4,0,2.7,0.5,3.8,1.5c1.1,1,1.6,2.2,1.6,3.6c0,1.4-0.5,2.7-1.6,3.6
	s-2.4,1.5-3.8,1.5c-1.4,0-2.7-0.5-3.8-1.5c-1.1-1-1.7-2.2-1.7-3.6C473.5,33.5,474,32.3,475.2,31.3z M483.3,49.7v40.8h-9.2V49.7
	H483.3z"/>
<path id="e3" class="st0" d="M528.4,80l4.2,6.8c-2.2,1.4-4.5,2.6-7,3.4c-2.5,0.8-5,1.2-7.3,1.2c-4.5,0-8.5-0.9-11.9-2.8
	c-3.4-1.9-6-4.5-7.8-7.7c-1.8-3.3-2.8-7-2.8-11.1c0-4,1-7.7,3-11c2-3.3,4.7-5.9,8.2-7.9c3.5-1.9,7.3-2.9,11.4-2.9
	c5.3,0,9.8,1.6,13.4,4.7c3.6,3.1,6,7.5,7.3,13.1l-32.3,11.3c1.2,2,2.8,3.6,4.8,4.8c2,1.2,4.3,1.7,6.9,1.7
	C521.8,83.6,525.2,82.4,528.4,80z M508.5,59.2c-2.4,2.6-3.6,6-3.6,10.1c0,1,0,1.7,0.1,2.3l23.8-8.8c-1-2.2-2.4-4-4.2-5.4
	c-1.8-1.4-4.1-2.1-6.8-2.1C514,55.3,510.9,56.6,508.5,59.2z"/>
<path id="w" class="st0" d="M606.1,49.7l-18.8,43.3l-13.1-28l-11.9,28l-18.9-43.3h9.1l10.9,24.7l7.6-17.7l-3.3-7h8l11,25.3L597,49.7
	H606.1z"/>
<path id="s" class="st0" d="M618.8,89.8c-2.7-1-4.9-2.6-6.7-4.6l3.9-5.3c1.6,1.6,3.4,2.8,5.2,3.6c1.8,0.9,3.6,1.3,5.4,1.3
	c2.2,0,3.9-0.4,5.3-1.3c1.4-0.9,2.1-2.2,2.1-3.9c0-1.4-0.4-2.5-1.3-3.4c-0.9-0.9-1.8-1.5-2.9-1.9s-2.9-1-5.5-1.8
	c-7-2.2-10.4-6.2-10.4-11.9c0-3.4,1.3-6.3,3.8-8.8c2.5-2.4,6.1-3.6,10.6-3.6c2.9,0,5.5,0.4,7.7,1.1c2.2,0.7,4.3,1.9,6.2,3.5
	l-3.6,5.6c-1.1-1.1-2.4-2-4-2.7c-1.6-0.7-3.1-1-4.6-1.1c-1.8,0-3.4,0.4-4.7,1.3c-1.3,0.9-2,2.1-2,3.6c0,1.2,0.4,2.3,1.3,3.1
	c0.9,0.8,1.7,1.4,2.7,1.8c0.9,0.4,2.7,1,5.4,1.8c3.4,1.1,6,2.6,7.8,4.3s2.8,4.2,2.8,7.2c0,3.9-1.4,7.2-4.1,9.8
	c-2.8,2.6-6.7,3.8-11.7,3.8C624.4,91.4,621.6,90.8,618.8,89.8z"/>
<path id="Lightning" class="st0" d="M70.3,47.4l-15.6,0c-1.2,0-2.1-1-2-2.2L54.6,24c0-1.3-0.8-2.3-2.1-2.6c-1.2-0.3-2.4,0.3-3,1.5
	L33.2,58c-0.4,0.8-0.3,1.8,0.2,2.5c0.5,0.8,1.3,1.2,2.2,1.2l15.6,0c1.2,0,2.1,1,2,2.2l-1.9,21.1c0,1.3,0.8,2.3,2.1,2.6
	c0.2,0,0.4,0.1,0.6,0.1c1,0,1.9-0.6,2.4-1.5l16.4-35.1c0.4-0.8,0.3-1.8-0.2-2.5C72.1,47.8,71.2,47.4,70.3,47.4z"/>
<path id="Dot9" class="st1" d="M28.9,14.9c2.3,0,4.2-1.9,4.2-4.2c0-2.3-1.9-4.2-4.2-4.2s-4.2,1.9-4.2,4.2
	C24.6,13,26.5,14.9,28.9,14.9z"/>
<path id="Dot8" class="st1" d="M10.6,24.6c-2.3,0-4.2,1.9-4.2,4.2c0,2.3,1.9,4.2,4.2,4.2s4.2-1.9,4.2-4.2
	C14.9,26.5,13,24.6,10.6,24.6z"/>
<circle id="Dot7" class="st1" cx="4.2" cy="53.5" r="4.2"/>
<path id="Dot6" class="st1" d="M10.6,73.9c-2.3,0-4.2,1.9-4.2,4.2c0,2.3,1.9,4.2,4.2,4.2s4.2-1.9,4.2-4.2
	C14.9,75.8,13,73.9,10.6,73.9z"/>
<path id="Dot5" class="st1" d="M28.9,92.1c-2.3,0-4.2,1.9-4.2,4.2c0,2.3,1.9,4.2,4.2,4.2s4.2-1.9,4.2-4.2
	C33.1,94,31.2,92.1,28.9,92.1z"/>
<path id="Dot4" class="st1" d="M53.5,98.6c-2.3,0-4.2,1.9-4.2,4.2c0,2.3,1.9,4.2,4.2,4.2s4.2-1.9,4.2-4.2
	C57.7,100.5,55.8,98.6,53.5,98.6z"/>
<path id="Dot3" class="st1" d="M78.1,92.1c-2.3,0-4.2,1.9-4.2,4.2c0,2.3,1.9,4.2,4.2,4.2s4.2-1.9,4.2-4.2
	C82.4,94,80.5,92.1,78.1,92.1z"/>
<path id="Dot2" class="st1" d="M96.4,73.9c-2.3,0-4.2,1.9-4.2,4.2c0,2.3,1.9,4.2,4.2,4.2s4.2-1.9,4.2-4.2
	C100.6,75.8,98.7,73.9,96.4,73.9z"/>
<circle id="Dot1" class="st1" cx="102.8" cy="53.5" r="4.2"/>
<path id="Time" class="st1" d="M96,32.8c0.7,0,1.5-0.2,2.1-0.6c1-0.6,1.7-1.5,1.9-2.6c0.3-1.1,0.1-2.2-0.4-3.2
	C90.1,10.1,72.4,0,53.5,0c-2.3,0-4.2,1.9-4.2,4.2c0,2.3,1.9,4.2,4.2,4.2c15.9,0,30.8,8.5,38.9,22.3C93.2,32,94.6,32.8,96,32.8z"/>
</svg>
